<svg version="1.0" xmlns="http://www.w3.org/2000/svg" xmlns:xlink="http://www.w3.org/1999/xlink" x="0" y="0" width="2400" height="548.6373792592059" viewBox="26.587994079589844 92.21616790771485 286.8239813232422 65.56764892578126" preserveAspectRatio="xMidYMid meet" color-interpolation-filters="sRGB"><g><defs><linearGradient id="92" x1="0%" y1="0%" x2="100%" y2="0%"><stop offset="0%" stop-color="#fa71cd"></stop> <stop offset="100%" stop-color="#9b59b6"></stop></linearGradient><linearGradient id="93" x1="0%" y1="0%" x2="100%" y2="0%"><stop offset="0%" stop-color="#f9d423"></stop> <stop offset="100%" stop-color="#f83600"></stop></linearGradient><linearGradient id="94" x1="0%" y1="0%" x2="100%" y2="0%"><stop offset="0%" stop-color="#0064d2"></stop> <stop offset="100%" stop-color="#1cb0f6"></stop></linearGradient><linearGradient id="95" x1="0%" y1="0%" x2="100%" y2="0%"><stop offset="0%" stop-color="#f00978"></stop> <stop offset="100%" stop-color="#3f51b1"></stop></linearGradient><linearGradient id="96" x1="0%" y1="0%" x2="100%" y2="0%"><stop offset="0%" stop-color="#7873f5"></stop> <stop offset="100%" stop-color="#ec77ab"></stop></linearGradient><linearGradient id="97" x1="0%" y1="0%" x2="100%" y2="0%"><stop offset="0%" stop-color="#f9d423"></stop> <stop offset="100%" stop-color="#e14fad"></stop></linearGradient><linearGradient id="98" x1="0%" y1="0%" x2="100%" y2="0%"><stop offset="0%" stop-color="#009efd"></stop> <stop offset="100%" stop-color="#2af598"></stop></linearGradient><linearGradient id="99" x1="0%" y1="0%" x2="100%" y2="0%"><stop offset="0%" stop-color="#ffcc00"></stop> <stop offset="100%" stop-color="#00b140"></stop></linearGradient><linearGradient id="100" x1="0%" y1="0%" x2="100%" y2="0%"><stop offset="0%" stop-color="#d51007"></stop> <stop offset="100%" stop-color="#ff8177"></stop></linearGradient><linearGradient id="102" x1="0%" y1="0%" x2="100%" y2="0%"><stop offset="0%" stop-color="#a2b6df"></stop> <stop offset="100%" stop-color="#0c3483"></stop></linearGradient><linearGradient id="103" x1="0%" y1="0%" x2="100%" y2="0%"><stop offset="0%" stop-color="#7ac5d8"></stop> <stop offset="100%" stop-color="#eea2a2"></stop></linearGradient><linearGradient id="104" x1="0%" y1="0%" x2="100%" y2="0%"><stop offset="0%" stop-color="#00ecbc"></stop> <stop offset="100%" stop-color="#007adf"></stop></linearGradient><linearGradient id="105" x1="0%" y1="0%" x2="100%" y2="0%"><stop offset="0%" stop-color="#b88746"></stop> <stop offset="100%" stop-color="#fdf5a6"></stop></linearGradient></defs><g fill="#f29716" class="icon-text-wrapper icon-svg-group iconsvg" transform="translate(29.399993896484375,95.02817153930664)"><g class="iconsvg-imagesvg" transform="translate(0,0)"><g><rect fill="#f29716" fill-opacity="0" stroke-width="2" x="0" y="0" width="60" height="59.943652966211765" class="image-rect"></rect> <svg x="0" y="0" width="60" height="59.943652966211765" filtersec="colorsb9429246442" class="image-svg-svg primary" style="overflow: visible;"><svg version="1.1" id="图层_1" xmlns="http://www.w3.org/2000/svg" xmlns:xlink="http://www.w3.org/1999/xlink" x="0px" y="0px" viewBox="0.7199974060058594 1.902496337890625 106.5675048828125 106.46749877929688" enable-background="new 0 0 109 110" xml:space="preserve"> <path fill="#FF9900" d="M31.34,54.99L31.34,54.99c0-6.31,4.5-22.35,19.33-22.35c-3.98-3.81-21.32-4.34-27.26-4.34  c-12.25,0-22.68,14.44-22.68,26.69v0c0,29.48,23.9,53.38,53.38,53.38c5.32,0,10.46-0.79,15.31-2.24  C47.39,99.55,31.34,79.15,31.34,54.99z"></path> <path fill="#38761D" d="M54.1,1.91L54.1,1.91c-29.48,0-53.38,23.9-53.38,53.38c0,5.32,0.79,10.46,2.24,15.31  C9.55,48.57,29.94,32.52,54.1,32.52h0c6.31,0,11.27,1.66,15.31,5.89c3.81-3.98,6.87-8.39,6.87-14.33  C76.28,11.84,66.35,1.91,54.1,1.91z"></path> <path fill="#8E7CC3" d="M70.21,39.19L70.21,39.19c4.46,4.46,12.62,18.99,2.14,29.47c5.5-0.12,18.14-12,22.34-16.21  c8.66-8.66,5.83-26.25-2.83-34.91l0,0c-20.85-20.85-54.64-20.85-75.49,0c-3.76,3.76-6.84,7.95-9.24,12.41  C27.35,19.03,53.12,22.11,70.21,39.19z"></path> <path fill="#00579D" d="M91.65,92.82L91.65,92.82c20.85-20.85,20.85-54.64,0-75.49c-3.76-3.76-7.95-6.84-12.41-9.24  c10.92,20.22,7.84,46-9.24,63.08v0c-4.46,4.46-10.34,6.6-16.19,6.47c0.13,5.51,2.27,10.98,6.47,15.18  C68.94,101.48,82.98,101.48,91.65,92.82z"></path> </svg></svg> </g></g> <g transform="translate(70.80000305175781,11.943656921386719)"><g fill-rule="" class="tp-name iconsvg-namesvg"><g transform="scale(1)"><g><path d="M25.8-18.7L25.8-18.7Q27.8-17.3 29-15.1 30.2-12.9 30.2-10.3L30.2-10.3 30.2-10.2Q30.2-8.1 29.4-6.23 28.6-4.35 27.2-2.98 25.8-1.6 23.95-0.8 22.1 0 20 0L20 0 10.05 0 12.45-6 20-6Q21.75-6 22.98-7.23 24.2-8.45 24.2-10.2L24.2-10.2 24.2-10.3Q24.2-12.05 22.98-13.28 21.75-14.5 20-14.5L20-14.5 17.55-14.5 7.75-14.5 7.75-6 7.75 0 1.75 0 1.75-14.5 1.75-20.5 1.75-35 17.55-35Q19.65-35 21.53-34.2 23.4-33.4 24.78-32 26.15-30.6 26.95-28.75 27.75-26.9 27.75-24.8L27.75-24.8 27.75-24.7Q27.75-23 27.23-21.48 26.7-19.95 25.8-18.7ZM21.75-24.7L21.75-24.8Q21.75-26.55 20.53-27.78 19.3-29 17.55-29L17.55-29 7.75-29 7.75-20.5 17.55-20.5Q19.3-20.5 20.53-21.73 21.75-22.95 21.75-24.7L21.75-24.7ZM53.75-35L53.75-35 60.85-35 47.35-13.5 46.8-12.65 46.8-11.85 46.8 0 40.8 0 40.8-12.65 26.75-35 33.85-35 43.8-19.15 53.75-35ZM76.65-29.75L76.65-29.75Q74.2-29.75 72-28.83 69.8-27.9 68.05-26.15L68.05-26.15Q66.3-24.4 65.38-22.2 64.45-20 64.45-17.55L64.45-17.55Q64.45-15.1 65.38-12.88 66.3-10.65 68.05-8.9L68.05-8.9Q69.8-7.15 72-6.25 74.2-5.35 76.65-5.35L76.65-5.35Q79.1-5.35 81.33-6.25 83.55-7.15 85.3-8.9L85.3-8.9Q87.05-10.65 87.95-12.88 88.85-15.1 88.85-17.55L88.85-17.55Q88.85-20 87.95-22.2 87.05-24.4 85.3-26.15L85.3-26.15Q83.55-27.9 81.33-28.83 79.1-29.75 76.65-29.75ZM76.65-35.75L76.65-35.75Q80.4-35.75 83.73-34.33 87.05-32.9 89.53-30.43 92-27.95 93.43-24.63 94.85-21.3 94.85-17.55L94.85-17.55Q94.85-13.8 93.43-10.48 92-7.15 89.53-4.67 87.05-2.2 83.73-0.78 80.4 0.65 76.65 0.65L76.65 0.65Q72.9 0.65 69.58-0.78 66.25-2.2 63.78-4.67 61.3-7.15 59.88-10.48 58.45-13.8 58.45-17.55L58.45-17.55Q58.45-21.3 59.88-24.63 61.3-27.95 63.78-30.43 66.25-32.9 69.58-34.33 72.9-35.75 76.65-35.75ZM105.1 0L105.1 0 99.1 0 99.1-6 105.1-6 105.1 0ZM135.65-35L135.65-35 135.65-29 125.4-29 125.4 0 119.4 0 119.4-29 109.1-29 109.1-35 119.4-35 125.4-35 135.65-35ZM148.1-25L154.1-25 154.1 0 148.1 0 148.1-1.9Q146.75-0.75 145.05-0.03 143.35 0.7 141.25 0.7L141.25 0.7Q138.8 0.7 136.8-0.23 134.8-1.15 133.38-2.75 131.95-4.35 131.18-6.5 130.4-8.65 130.4-11.1L130.4-11.1 130.4-25 136.4-25 136.4-11.1Q136.4-8.75 138.15-7L138.15-7Q139.85-5.3 142.25-5.3L142.25-5.3Q144.7-5.3 146.4-7L146.4-7Q148.1-8.7 148.1-11.1L148.1-11.1 148.1-25ZM171.05-25.65L171.05-25.65Q173.8-25.65 176.13-24.63 178.45-23.6 180.15-21.8 181.85-20 182.8-17.6 183.75-15.2 183.75-12.45L183.75-12.45Q183.75-9.75 182.8-7.35 181.85-4.95 180.15-3.15 178.45-1.35 176.13-0.33 173.8 0.7 171.05 0.7L171.05 0.7Q168.1 0.7 165.7-0.45L165.7-0.45 167.85-5.8Q169.05-5.3 170.55-5.3L170.55-5.3Q173.6-5.3 175.65-7.4L175.65-7.4Q177.75-9.5 177.75-12.45L177.75-12.45Q177.75-15.45 175.65-17.55L175.65-17.55Q173.55-19.65 170.55-19.65L170.55-19.65Q167.65-19.65 165.45-17.55L165.45-17.55Q163.35-15.45 163.35-12.45L163.35-12.45 163.35-1.95 163.35 0.05 157.35 0.05 157.35-35 163.35-35 163.35-23Q164.8-24.15 166.7-24.9 168.6-25.65 171.05-25.65ZM211.8-9.5L205.5-9.5 192.4-9.5Q192.9-8.35 193.85-7.45L193.85-7.45Q194.9-6.4 196.2-5.88 197.5-5.35 198.95-5.35L198.95-5.35Q201-5.35 202.6-6.3L202.6-6.3 208.85-3.8Q207.05-1.7 204.5-0.53 201.95 0.65 198.95 0.65L198.95 0.65Q196.2 0.65 193.8-0.38 191.4-1.4 189.6-3.2 187.8-5 186.78-7.4 185.75-9.8 185.75-12.5L185.75-12.5Q185.75-15.25 186.78-17.65 187.8-20.05 189.6-21.85 191.4-23.65 193.8-24.68 196.2-25.7 198.95-25.7L198.95-25.7Q201.7-25.7 204.1-24.68 206.5-23.65 208.3-21.85 210.1-20.05 211.13-17.65 212.15-15.25 212.15-12.5L212.15-12.5Q212.15-10.9 211.8-9.5L211.8-9.5ZM198.95-19.7L198.95-19.7Q196.05-19.7 193.85-17.6L193.85-17.6Q192.9-16.65 192.4-15.5L192.4-15.5 205.5-15.5Q205-16.65 204.05-17.6L204.05-17.6Q201.95-19.7 198.95-19.7Z" transform="translate(-1.75, 35.75)"></path></g> </g></g> </g></g><defs v-gra="od"></defs></g></svg>